<?xml version="1.0" encoding="utf-8"?>
<svg width="64px" height="64px" viewBox="0 0 64 64" version="1.1" xmlns:xlink="http://www.w3.org/1999/xlink" xmlns="http://www.w3.org/2000/svg">
  <defs>
    <filter id="filter_1">
      <feColorMatrix in="SourceGraphic" type="matrix" values="0 0 0 0 1 0 0 0 0 0.9882353 0 0 0 0 1 0 0 0 1 0" />
    </filter>
    <path d="M0 0L64 0L64 64L0 64L0 0Z" id="path_1" />
    <clipPath id="mask_1">
      <use xlink:href="#path_1" />
    </clipPath>
  </defs>
  <g id="open-24-hours" filter="url(#filter_1)">
    <path d="M0 0L64 0L64 64L0 64L0 0Z" id="Background" fill="none" fill-rule="evenodd" stroke="none" />
    <g clip-path="url(#mask_1)">
      <g id="Group" transform="translate(0 2.0117188)">
        <path d="M60.4518 2.57725C59.7728 2.44625 59.1183 2.89037 58.9878 3.56812C56.5031 16.4632 45.153 25.8225 32 25.8225C19.1241 25.8225 7.97608 16.8534 5.18095 4.37838L5.5072 4.70462C5.75133 4.94875 6.0712 5.07087 6.39108 5.07087C6.71095 5.07087 7.03083 4.94875 7.27483 4.70475C7.76308 4.21663 7.76308 3.42525 7.27495 2.937L4.70433 0.366249C4.46995 0.131748 4.15195 0 3.82045 0C3.48895 0 3.17095 0.131748 2.93658 0.366249L0.366078 2.937C-0.122047 3.42513 -0.122047 4.2165 0.366203 4.70475C0.854203 5.193 1.64583 5.19287 2.13395 4.70462L2.5967 4.24187C5.38633 18.2076 17.7191 28.3225 32 28.3225C46.3491 28.3225 58.7316 18.1107 61.4427 4.04125C61.5733 3.36337 61.1297 2.70787 60.4518 2.57725L60.4518 2.57725Z" transform="translate(0 31.654053)" id="Shape" fill="#000000" fill-rule="evenodd" stroke="none" />
        <path d="M61.0993 23.6178C60.6113 23.1295 59.8197 23.1296 59.3316 23.6179L58.8688 24.0806C56.0792 10.1149 43.7464 0 29.4656 0C15.1164 0 2.73394 10.2118 0.0228124 24.2813C-0.107813 24.9593 0.335812 25.6146 1.01369 25.7453C1.69244 25.8756 2.34706 25.432 2.47769 24.7544C4.96256 11.8593 16.3127 2.5 29.4656 2.5C42.3414 2.5 53.4894 11.4691 56.2846 23.9441L55.9583 23.6179C55.4703 23.1297 54.6789 23.1296 54.1906 23.6177C53.7023 24.1059 53.7023 24.8972 54.1904 25.3855L56.7609 27.9562C56.9953 28.1908 57.3133 28.3225 57.6448 28.3225C57.9763 28.3225 58.2943 28.1907 58.5287 27.9562L61.0992 25.3855C61.5877 24.8974 61.5877 24.1059 61.0993 23.6177L61.0993 23.6178Z" transform="translate(2.5344238 0)" id="Shape" fill="#000000" fill-rule="evenodd" stroke="none" />
        <path d="M21.1299 42.2598C32.7809 42.2598 42.2598 32.7809 42.2598 21.1299C42.2598 9.47887 32.7809 0 21.1299 0C9.47887 0 0 9.47887 0 21.1299C0 32.7809 9.47887 42.2598 21.1299 42.2598L21.1299 42.2598ZM21.1299 2.5C31.4025 2.5 39.7598 10.8573 39.7598 21.1299C39.7598 31.4025 31.4025 39.7598 21.1299 39.7598C10.8573 39.7598 2.5 31.4025 2.5 21.1299C2.5 10.8573 10.8573 2.5 21.1299 2.5L21.1299 2.5Z" transform="translate(10.870117 8.858398)" id="Shape" fill="#000000" fill-rule="evenodd" stroke="none" />
        <path d="M0.788441 11.1093C0.939941 11.1697 1.09619 11.1982 1.24994 11.1982C1.74694 11.1982 2.21694 10.8997 2.41182 10.4097L5.87119 1.71228C6.12631 1.07078 5.81306 0.343904 5.17169 0.0887795C4.53044 -0.16622 3.80331 0.14678 3.54819 0.788404L0.0888138 9.48578C-0.166309 10.1273 0.146938 10.8542 0.788441 11.1093L0.788441 11.1093Z" transform="translate(32.530518 24.38916)" id="Shape" fill="#000000" fill-rule="evenodd" stroke="none" />
        <path d="M1.24987 2.49975L4.11987 2.49975L1.067 9.44425C0.789124 10.0763 1.07625 10.8138 1.70825 11.0916C1.872 11.1636 2.04262 11.1978 2.21075 11.1978C2.6915 11.1976 3.14987 10.9188 3.35562 10.4505L7.17912 1.753C7.349 1.36637 7.31237 0.92025 7.08162 0.56675C6.85075 0.213125 6.45712 0 6.03487 0L1.25 0C0.55975 0 0 0.55975 0 1.25C-0.000125885 1.94 0.559502 2.49975 1.24987 2.49975L1.24987 2.49975Z" transform="translate(39.132935 24.389648)" id="Shape" fill="#000000" fill-rule="evenodd" stroke="none" />
        <path d="M0.173616 8.01711C0.398491 8.39799 0.807741 8.63161 1.24999 8.63161L4.34099 8.63161C4.33749 9.09236 4.33386 9.53374 4.33036 9.93786C4.32449 10.6282 4.87936 11.1926 5.56961 11.1986L5.58061 11.1986C6.26586 11.1986 6.82436 10.646 6.83036 9.95936C6.83324 9.63223 6.83699 9.16799 6.84124 8.62499C7.47074 8.56011 7.96187 8.02824 7.96187 7.38161C7.96187 6.74061 7.47949 6.21236 6.85787 6.13999C6.86912 4.10536 6.87336 2.05699 6.84787 1.75024C6.78099 0.946362 6.28999 0.288486 5.59699 0.0737362C4.90499 -0.140265 4.17737 0.117987 3.65024 0.764736C3.15524 1.37186 1.04149 5.17211 0.155617 6.77773C-0.0581341 7.16511 -0.0512581 7.63624 0.173616 8.01711L0.173616 8.01711ZM4.36522 4.38623C4.36335 4.92611 4.36073 5.52023 4.35735 6.13173L3.3761 6.13173C3.72347 5.51286 4.0611 4.91648 4.36522 4.38623L4.36522 4.38623Z" transform="translate(24.208618 24.388428)" id="Shape" fill="#000000" fill-rule="evenodd" stroke="none" />
        <path d="M6.04404 11.3476C6.73429 11.339 7.28679 10.7722 7.27816 10.082C7.26966 9.39712 6.71166 8.84775 6.02866 8.84775C6.02329 8.84775 6.01791 8.84775 6.01254 8.84787C5.32816 8.85637 4.60916 8.86275 3.95954 8.86588C4.40929 8.257 4.98666 7.45913 5.71604 6.417C6.29141 5.595 6.66754 4.8135 6.83429 4.09438C6.87529 3.93488 6.90929 3.70925 6.90966 3.47563C6.91241 1.55913 5.35054 0 3.43404 0C1.77704 0 0.342911 1.179 0.0236607 2.80325C-0.109339 3.48062 0.331785 4.13762 1.00928 4.27075C1.68716 4.40413 2.34378 3.96263 2.47679 3.28513C2.56616 2.83013 2.96879 2.5 3.43404 2.5C3.95066 2.5 4.37466 2.90375 4.40754 3.41212L4.38566 3.58325C4.31104 3.86838 4.12491 4.33038 3.66791 4.98338C2.29329 6.94738 1.47329 8.021 1.03279 8.59775C0.467911 9.33738 0.156786 9.74475 0.36466 10.4213C0.487036 10.8189 0.799286 11.1361 1.20091 11.2701C1.36779 11.3258 1.50141 11.3703 3.20854 11.3703C3.87879 11.3701 4.79154 11.3634 6.04404 11.3476L6.04404 11.3476Z" transform="translate(17.582031 24.304443)" id="Shape" fill="#000000" fill-rule="evenodd" stroke="none" />
      </g>
    </g>
  </g>
</svg>