<?xml version="1.0" encoding="utf-8"?>
<svg width="64px" height="64px" viewBox="0 0 64 64" version="1.1" xmlns:xlink="http://www.w3.org/1999/xlink" xmlns="http://www.w3.org/2000/svg">
  <defs>
    <filter id="filter_1">
      <feColorMatrix in="SourceGraphic" type="matrix" values="0 0 0 0 1 0 0 0 0 0.9882353 0 0 0 0 1 0 0 0 1 0" />
    </filter>
    <path d="M0 0L64 0L64 64L0 64L0 0Z" id="path_1" />
    <clipPath id="mask_1">
      <use xlink:href="#path_1" />
    </clipPath>
  </defs>
  <g id="coach" filter="url(#filter_1)">
    <path d="M0 0L64 0L64 64L0 64L0 0Z" id="Background" fill="none" fill-rule="evenodd" stroke="none" />
    <g clip-path="url(#mask_1)">
      <g id="Group" transform="translate(-6.1035156E-05 0.008056641)">
        <g id="Group">
          <path d="M61.3168 48.2977C60.388 42.9313 56.26 38.7001 50.8936 37.5649L39.4384 35.0881C39.3352 35.0881 39.3352 35.0881 39.232 35.0881L39.232 28.5865C42.4312 26.3161 44.392 22.4977 44.392 18.576L44.392 12.384C44.392 5.57281 38.8192 0 32.008 0C25.1968 0 19.624 5.57281 19.624 12.384L19.624 18.576C19.624 22.6008 21.5848 26.3161 24.784 28.5865L24.784 35.0881C24.6808 35.0881 24.6808 35.0881 24.5776 35.0881L13.1223 37.4617C7.75594 38.5969 3.62793 42.8281 2.69913 48.1945L0.0159198 62.7457C-0.0872804 63.2617 0.32552 63.8809 0.841522 63.9841C0.944722 63.9841 0.944722 63.9841 1.04792 63.9841L62.9681 63.9841C63.5872 63.9841 64.0001 63.5713 64.0001 62.9521C64.0001 62.8489 64.0001 62.8489 64.0001 62.7457L61.3168 48.2977L61.3168 48.2977ZM32.008 2.06396C36.9616 2.06396 41.0896 5.46957 42.1216 10.32L21.8943 10.32C22.9263 5.46957 27.0544 2.06396 32.008 2.06396L32.008 2.06396ZM41.9152 12.384L38.8192 15.48L25.1968 15.48L22.1008 12.384L41.9152 12.384L41.9152 12.384ZM21.688 18.576L21.688 14.8608L24.0616 17.2344C24.268 17.4408 24.4744 17.544 24.784 17.544L39.232 17.544C39.5416 17.544 39.748 17.4408 39.9544 17.2344L42.328 14.8608L42.328 18.576C42.328 24.2521 37.684 28.8961 32.008 28.8961C26.332 28.8961 21.688 24.2521 21.688 18.576L21.688 18.576ZM37.168 29.825L37.168 36.7394L36.4456 37.4618C35.3104 38.597 33.6592 39.3194 32.1112 39.3194L31.9048 39.3194C30.2536 39.3194 28.7056 38.7002 27.5704 37.4618L26.848 36.7394L26.848 29.825C28.4992 30.5474 30.2536 30.9602 32.008 30.9602C33.7624 30.9602 35.5168 30.5474 37.168 29.825L37.168 29.825ZM22.72 37.6682L24.4744 37.2554L26.0224 38.9066C27.5704 40.4546 29.6344 41.2802 31.9048 41.2802L32.1112 41.2802C34.2784 41.2802 36.4456 40.4546 37.9936 38.9066L39.6448 37.2554L41.3992 37.6682L41.3992 40.9706L35.9296 48.1946C34.072 46.0274 30.8728 45.821 28.7056 47.6786C28.4992 47.885 28.396 47.9882 28.1896 48.1946L22.72 40.9706L22.72 37.6682L22.72 37.6682ZM32.008 54.6962C30.2536 54.6962 28.912 53.3546 28.912 51.6002C28.912 49.8458 30.2536 48.5042 32.008 48.5042C33.7624 48.5042 35.104 49.8458 35.104 51.6002L35.104 57.7922L33.04 57.7922L33.04 55.7282C33.04 55.109 32.6272 54.6962 32.008 54.6962L32.008 54.6962ZM15.4959 61.9202L2.28632 61.9202L2.69912 59.8562L15.4959 59.8562L15.4959 61.9202L15.4959 61.9202ZM46.456 62.0234L17.56 62.0234L17.56 48.5042L15.496 48.5042L15.496 57.7922L3.00873 57.7922L4.65993 48.6074C5.48553 44.0666 8.99434 40.4546 13.5352 39.5258L20.656 37.9778L20.656 41.2802C20.656 41.4866 20.7592 41.693 20.8624 41.8994L27.0544 50.1554C26.9512 50.5682 26.848 51.0842 26.848 51.6002C26.848 54.077 28.6024 56.141 30.976 56.657L30.976 58.8242C30.976 59.4434 31.3888 59.8562 32.008 59.8562L36.136 59.8562C36.7552 59.8562 37.168 59.4434 37.168 58.8242L37.168 51.6002C37.168 51.0842 37.0648 50.5682 36.9616 50.1554L43.1536 41.8994C43.2568 41.693 43.36 41.4866 43.36 41.2802L43.36 38.081L50.4808 39.629C55.0216 40.5578 58.5305 44.1698 59.356 48.7106L61.0072 57.8954L48.52 57.8954L48.52 48.6074L46.456 48.6074L46.456 62.0234L46.456 62.0234ZM48.52 61.9202L48.52 59.8562L61.3168 59.8562L61.7297 61.9202L48.52 61.9202L48.52 61.9202Z" id="Shape" fill="#000000" fill-rule="evenodd" stroke="none" />
        </g>
      </g>
      <g id="Group" transform="translate(30.975952 50.57617)">
        <g id="Group">
          <path d="M0 0L2.064 0L2.064 2.064L0 2.064L0 0Z" id="Rectangle" fill="#000000" fill-rule="evenodd" stroke="none" />
        </g>
      </g>
    </g>
  </g>
</svg>