<?xml version="1.0" encoding="utf-8"?>
<svg width="64px" height="64px" viewBox="0 0 64 64" version="1.1" xmlns:xlink="http://www.w3.org/1999/xlink" xmlns="http://www.w3.org/2000/svg">
  <defs>
    <filter id="filter_1">
      <feColorMatrix in="SourceGraphic" type="matrix" values="0 0 0 0 1 0 0 0 0 0.9882353 0 0 0 0 1 0 0 0 1 0" />
    </filter>
    <path d="M0 0L64 0L64 64L0 64L0 0Z" id="path_1" />
    <clipPath id="mask_1">
      <use xlink:href="#path_1" />
    </clipPath>
  </defs>
  <g id="dollar-symbol" filter="url(#filter_1)">
    <path d="M0 0L64 0L64 64L0 64L0 0Z" id="Background" fill="none" fill-rule="evenodd" stroke="none" />
    <g clip-path="url(#mask_1)">
      <path d="M23.2638 59.311L16.9753 59.311C16.492 59.311 16.1003 58.9192 16.1003 58.436L16.1003 54.573C10.1799 53.7538 4.65618 51.1287 0.282264 47.0555C-0.0572233 46.7429 -0.0955153 46.2203 0.19477 45.8615L5.16977 39.7115C5.32148 39.5238 5.54403 39.4071 5.78472 39.3891C6.02541 39.3711 6.26283 39.4534 6.44077 39.6165C9.1627 42.2072 12.4799 44.0887 16.1003 45.0955L16.1003 33.4055C7.52827 31.0855 1.86577 27.727 1.86577 19.325C1.86577 11.615 7.55277 5.6685 16.1003 4.329L16.1003 0.875C16.1003 0.391751 16.492 0 16.9753 0L23.2638 0C23.747 0 24.1388 0.391751 24.1388 0.875L24.1388 4.3835C29.4219 5.09424 34.3708 7.37207 38.3468 10.923C38.6934 11.2219 38.7511 11.7373 38.4793 12.1055L33.7793 18.463C33.6346 18.659 33.4146 18.7857 33.1725 18.8127C32.9304 18.8396 32.688 18.7643 32.5038 18.605C30.0921 16.4416 27.2373 14.8306 24.1388 13.8845L24.1388 25.0555C32.4098 27.001 39.8933 30.2015 39.8933 39.5715C39.8933 48.0785 33.8808 53.8645 24.1388 54.8185L24.1388 58.436C24.1388 58.9193 23.747 59.311 23.2638 59.311L23.2638 59.311ZM17.8502 57.561L22.3887 57.561L22.3887 54.011C22.3887 53.551 22.7449 53.1695 23.2038 53.138C32.4187 52.5025 38.1432 47.3035 38.1432 39.569C38.1432 31.6385 32.1177 28.6495 23.0707 26.6025C22.672 26.5121 22.3889 26.1578 22.3887 25.749L22.3887 12.761C22.3883 12.4957 22.5083 12.2445 22.715 12.0782C22.9217 11.9118 23.1927 11.8483 23.4518 11.9055C26.939 12.7324 30.1835 14.3662 32.9242 16.6755L36.5817 11.7255C32.7837 8.52541 28.1113 6.54103 23.1712 6.03C22.7263 5.98271 22.3888 5.60741 22.3887 5.16L22.3887 1.75L17.8502 1.75L17.8502 5.0905C17.8502 5.53268 17.5203 5.90539 17.0813 5.95899C9.02723 6.9415 3.61573 12.3125 3.61573 19.325C3.61573 26.8405 8.81173 29.7025 17.1952 31.884C17.5809 31.984 17.8502 32.3321 17.8502 32.7305L17.8502 46.2055C17.8503 46.4696 17.7311 46.7196 17.5258 46.8858C17.3205 47.052 17.0511 47.1166 16.7928 47.0615C12.7697 46.163 9.0405 44.2578 5.95474 41.5245L2.07874 46.3155C6.28455 50.0038 11.5195 52.3147 17.0787 52.937C17.5186 52.9894 17.8498 53.3625 17.8497 53.8055L17.8502 57.561ZM23.2638 47.4944C22.7805 47.4944 22.3888 47.1026 22.3888 46.6194L22.3888 34.3194C22.3886 34.0433 22.5188 33.7835 22.7399 33.6183C22.961 33.4531 23.2472 33.402 23.5118 33.4804C28.4168 34.9304 31.2558 36.5304 31.2558 40.3999C31.2558 44.1414 28.1588 46.9239 23.3663 47.4884C23.3323 47.4923 23.298 47.4943 23.2638 47.4944L23.2638 47.4944ZM24.1388 35.5056L24.1388 45.5966C27.4753 44.9306 29.5058 42.9966 29.5058 40.4001C29.5058 38.0881 28.1723 36.8256 24.1388 35.5056L24.1388 35.5056ZM16.9753 24.9679C16.8763 24.968 16.778 24.9511 16.6848 24.9179C13.5103 23.8014 10.5723 22.2584 10.5723 18.5649C10.5723 15.4089 13.0618 12.6794 16.7673 11.7719C17.0283 11.708 17.3041 11.7676 17.5155 11.9335C17.7269 12.0994 17.8503 12.3532 17.8503 12.6219L17.8503 24.0929C17.85 24.5761 17.4584 24.9677 16.9752 24.9679L16.9753 24.9679ZM16.1003 13.8149C13.8003 14.7209 12.3223 16.5339 12.3223 18.5649C12.3223 20.5014 13.3358 21.6879 16.1003 22.8254L16.1003 13.8149Z" transform="translate(12.053223 2.3444824)" id="Shape" fill="#000000" fill-rule="evenodd" stroke="none" />
    </g>
  </g>
</svg>