<?xml version="1.0" encoding="utf-8"?>
<svg width="32px" height="32px" viewBox="0 0 32 32" version="1.1" xmlns:xlink="http://www.w3.org/1999/xlink" xmlns="http://www.w3.org/2000/svg">
  <defs>
    <filter id="filter_1">
      <feColorMatrix in="SourceGraphic" type="matrix" values="0 0 0 0 0.4392157 0 0 0 0 0.972549 0 0 0 0 0.7294118 0 0 0 1 0" />
    </filter>
    <path d="M0 0L32 0L32 32L0 32L0 0Z" id="path_1" />
    <clipPath id="mask_1">
      <use xlink:href="#path_1" />
    </clipPath>
  </defs>
  <g id="facebook" filter="url(#filter_1)">
    <path d="M0 0L32 0L32 32L0 32L0 0Z" id="Background" fill="none" fill-rule="evenodd" stroke="none" />
    <g clip-path="url(#mask_1)">
      <g id="Group" transform="translate(6.4223633 0)">
        <path d="M16.024 5.72009L19.1552 5.72009L19.1552 0.00347938L13.465 0.00347938C12.9903 -0.0162717 7.20387 -0.126878 5.7041 5.59237C5.68238 5.65228 5.20309 7.01247 5.20309 10.1898L0 10.2056L0 16.2013L5.20967 16.1862L5.20967 32.0009L13.1674 32.0009L13.1674 16.2L18.4343 16.2L18.4343 10.1884L13.1674 10.1884L13.1674 8.29695C13.1674 7.1211 13.6631 5.72009 16.024 5.72009L16.024 5.72009ZM17.1175 11.5046L17.1175 14.8827L11.8505 14.8827L11.8505 30.6835L6.52632 30.6835L6.52632 14.8656L1.31665 14.8807L1.31665 11.5184L6.54015 11.5033L6.52632 10.8337C6.45785 7.46813 6.9378 6.05263 6.95953 5.98482C8.25388 1.05891 13.1963 1.30645 13.4082 1.31962L17.8384 1.32094L17.8384 4.40408L16.0239 4.40408C12.9474 4.40408 11.8512 6.41474 11.8512 8.29635L11.8512 11.5046L17.1175 11.5046L17.1175 11.5046L17.1175 11.5046Z" id="Shape" fill="#000000" fill-rule="evenodd" stroke="none" />
      </g>
    </g>
  </g>
</svg>