<?xml version="1.0" encoding="utf-8"?>
<svg width="32px" height="32px" viewBox="0 0 32 32" version="1.1" xmlns:xlink="http://www.w3.org/1999/xlink" xmlns="http://www.w3.org/2000/svg">
  <defs>
    <filter id="filter_1">
      <feColorMatrix in="SourceGraphic" type="matrix" values="0 0 0 0 0.4392157 0 0 0 0 0.972549 0 0 0 0 0.7294118 0 0 0 1 0" />
    </filter>
    <path d="M0 0L32 0L32 32L0 32L0 0Z" id="path_1" />
    <clipPath id="mask_1">
      <use xlink:href="#path_1" />
    </clipPath>
  </defs>
  <g id="instagram" filter="url(#filter_1)">
    <path d="M0 0L32 0L32 32L0 32L0 0Z" id="Background" fill="none" fill-rule="evenodd" stroke="none" />
    <g clip-path="url(#mask_1)">
      <path d="M23.3378 0L8.66209 0C3.88573 0 0 3.88573 0 8.66209L0 23.3381C0 28.1142 3.88573 31.9999 8.66209 31.9999L23.3381 31.9999C28.1142 31.9999 31.9999 28.1142 31.9999 23.3381L31.9999 8.66209C31.9999 3.88573 28.1142 0 23.3378 0L23.3378 0ZM30.124 23.3381C30.124 27.0798 27.0798 30.124 23.3378 30.124L8.6621 30.124C4.92016 30.124 1.87598 27.0798 1.87598 23.3381L1.87598 8.6621C1.87598 4.92016 4.92016 1.87598 8.6621 1.87598L23.3381 1.87598C27.0798 1.87598 30.124 4.92016 30.124 8.6621L30.124 23.3381Z" id="Shape" fill="#000000" fill-rule="evenodd" stroke="none" />
      <path d="M8.74974 0C3.92504 0 0 3.92504 0 8.74974C0 13.5744 3.92504 17.4995 8.74974 17.4995C13.5744 17.4995 17.4995 13.5744 17.4995 8.74974C17.4995 3.92504 13.5744 0 8.74974 0L8.74974 0ZM8.74974 15.6235C4.95971 15.6235 1.87598 12.54 1.87598 8.74974C1.87598 4.95971 4.95971 1.87598 8.74974 1.87598C12.54 1.87598 15.6235 4.95971 15.6235 8.74974C15.6235 12.54 12.54 15.6235 8.74974 15.6235L8.74974 15.6235Z" transform="translate(7.250244 7.25)" id="Shape" fill="#000000" fill-rule="evenodd" stroke="none" />
      <path d="M2.58544 0C1.15967 0 0 1.15991 0 2.58544C0 4.01122 1.15967 5.17113 2.58544 5.17113C4.01122 5.17113 5.17113 4.01122 5.17113 2.58544C5.17113 1.15967 4.01122 0 2.58544 0L2.58544 0ZM2.58545 3.29492C2.19434 3.29492 1.87598 2.97656 1.87598 2.58545C1.87598 2.19409 2.19434 1.87598 2.58545 1.87598C2.9768 1.87598 3.29516 2.19409 3.29516 2.58545C3.29516 2.97656 2.9768 3.29492 2.58545 3.29492L2.58545 3.29492Z" transform="translate(22.373535 4.142578)" id="Shape" fill="#000000" fill-rule="evenodd" stroke="none" />
    </g>
  </g>
</svg>