<?xml version="1.0" encoding="utf-8"?>
<svg width="64px" height="64px" viewBox="0 0 64 64" version="1.1" xmlns:xlink="http://www.w3.org/1999/xlink" xmlns="http://www.w3.org/2000/svg">
  <defs>
    <filter id="filter_1">
      <feColorMatrix in="SourceGraphic" type="matrix" values="0 0 0 0 1 0 0 0 0 0.9882353 0 0 0 0 1 0 0 0 1 0" />
    </filter>
    <path d="M0 0L64 0L64 64L0 64L0 0Z" id="path_1" />
    <clipPath id="mask_1">
      <use xlink:href="#path_1" />
    </clipPath>
  </defs>
  <g id="kettlebell" filter="url(#filter_1)">
    <path d="M0 0L64 0L64 64L0 64L0 0Z" id="Background" fill="none" fill-rule="evenodd" stroke="none" />
    <g clip-path="url(#mask_1)">
      <g id="Group" transform="translate(0 0.625)">
        <path d="M0 1.25C0 0.559644 0.559644 0 1.25 0C1.94036 0 2.5 0.559644 2.5 1.25C2.5 1.94036 1.94036 2.5 1.25 2.5C0.559644 2.5 0 1.94036 0 1.25Z" transform="translate(50.25 30.125)" id="Circle" fill="#000000" fill-rule="evenodd" stroke="none" />
        <path d="M62.75 5L52.75 5L52.75 1.25C52.75 0.559625 52.1904 0 51.5 0L44 0C43.3096 0 42.75 0.559625 42.75 1.25L42.75 5L32.75 5C32.0596 5 31.5 5.55963 31.5 6.25L31.5 13.8084C30.2266 13.1339 28.7767 12.75 27.2383 12.75L11.5118 12.75C6.47375 12.75 2.375 16.8487 2.375 21.8867C2.375 23.4884 2.79825 25.0681 3.59912 26.4551L5.998 30.6101C2.1735 34.2609 0 39.3111 0 44.625C0 49.7472 2.03137 54.4061 5.72013 57.7432C9.28875 60.9719 14.1381 62.75 19.375 62.75C24.6082 62.75 29.4544 60.9744 33.0223 57.75L42.75 57.75L42.75 61.5C42.75 62.1904 43.3096 62.75 44 62.75L51.5 62.75C52.1904 62.75 52.75 62.1904 52.75 61.5L52.75 57.75L62.75 57.75C63.4404 57.75 64 57.1904 64 56.5L64 46.5C64 45.8096 63.4404 45.25 62.75 45.25L52.75 45.25L52.75 37C52.75 36.3112 52.1888 35.75 51.5 35.75C50.8112 35.75 50.25 36.3112 50.25 37L50.25 45.25L45.25 45.25L45.25 17.5L50.25 17.5L50.25 25.75C50.25 26.4387 50.8112 27 51.5 27C52.1888 27 52.75 26.4387 52.75 25.75L52.75 17.5L62.75 17.5C63.4404 17.5 64 16.9404 64 16.25L64 6.25C64 5.55963 63.4404 5 62.75 5L62.75 5ZM45.25 2.5L50.25 2.5L50.25 5L45.25 5L45.25 2.5ZM34 7.5L44 7.5L51.5 7.5L61.5 7.5L61.5 10L34 10L34 7.5ZM2.5 44.625C2.5 39.6935 4.65 35.022 8.39875 31.8083C8.8555 31.4166 8.96863 30.7553 8.66775 30.2342L5.76413 25.2051C5.1825 24.1976 4.875 23.0501 4.875 21.8868C4.875 18.2273 7.85225 15.25 11.5118 15.25L27.2383 15.25C30.8978 15.25 33.875 18.2273 33.875 21.8868C33.875 23.0501 33.5675 24.1976 32.9859 25.2051L30.0823 30.2342C29.7814 30.7553 29.8945 31.4166 30.3513 31.8083C34.1 35.022 36.25 39.6935 36.25 44.625C36.25 53.5327 28.9952 60.25 19.375 60.25C9.75475 60.25 2.5 53.5327 2.5 44.625L2.5 44.625ZM50.25 60.25L45.25 60.25L45.25 57.75L50.25 57.75L50.25 60.25ZM61.5 55.25L51.5 55.25L44 55.25L35.2994 55.25C35.8888 54.4604 36.407 53.6249 36.8501 52.75L61.5 52.75L61.5 55.25ZM51.5 47.75L61.5 47.75L61.5 50.25L37.8786 50.25C38.1404 49.4393 38.3444 48.6044 38.4888 47.75L44 47.75L51.5 47.75ZM42.75 45.25L38.7386 45.25C38.7454 45.0424 38.75 44.8343 38.75 44.625C38.75 39.3111 36.5765 34.2609 32.752 30.6101L35.1509 26.4551C35.9518 25.0681 36.375 23.4884 36.375 21.8867C36.375 20.2979 35.9666 18.8029 35.2504 17.5L42.75 17.5L42.75 45.25ZM61.5 15L51.5 15L44 15L34 15L34 12.5L61.5 12.5L61.5 15Z" id="Shape" fill="#000000" fill-rule="evenodd" stroke="none" />
        <path d="M24 4.13675C24 1.85575 22.1442 0 19.8633 0L4.13675 0C1.85575 0 0 1.85575 0 4.13675C0 4.86187 0.191625 5.57712 0.55425 6.20512L3.34062 11.0311C3.6635 11.5905 4.3595 11.8117 4.94625 11.5414C7.16563 10.5186 9.53888 10 12 10C14.4611 10 16.8344 10.5186 19.0539 11.5414C19.2227 11.6192 19.4007 11.6563 19.5762 11.6563C20.0104 11.6563 20.4295 11.4294 20.6595 11.0311L23.4459 6.20512C23.8084 5.57712 24 4.862 24 4.13675L24 4.13675ZM21.2808 4.95512L19.0478 8.82262C16.8054 7.94437 14.44 7.5 12 7.5C9.56 7.5 7.19462 7.94437 4.95225 8.82275L2.71925 4.95525C2.57575 4.70675 2.5 4.42375 2.5 4.13675C2.5 3.23425 3.23425 2.5 4.13675 2.5L19.8633 2.5C20.7658 2.5 21.5 3.23425 21.5 4.13675C21.5 4.42375 21.4242 4.70675 21.2808 4.95512L21.2808 4.95512Z" transform="translate(7.375 17.75)" id="Shape" fill="#000000" fill-rule="evenodd" stroke="none" />
      </g>
    </g>
  </g>
</svg>