<?xml version="1.0" encoding="utf-8"?>
<svg width="64px" height="64px" viewBox="0 0 64 64" version="1.1" xmlns:xlink="http://www.w3.org/1999/xlink" xmlns="http://www.w3.org/2000/svg">
  <defs>
    <filter id="filter_1">
      <feColorMatrix in="SourceGraphic" type="matrix" values="0 0 0 0 1 0 0 0 0 0.9882353 0 0 0 0 1 0 0 0 1 0" />
    </filter>
    <path d="M0 0L64 0L64 64L0 64L0 0Z" id="path_1" />
    <clipPath id="mask_1">
      <use xlink:href="#path_1" />
    </clipPath>
  </defs>
  <g id="meal" filter="url(#filter_1)">
    <path d="M0 0L64 0L64 64L0 64L0 0Z" id="Background" fill="none" fill-rule="evenodd" stroke="none" />
    <g clip-path="url(#mask_1)">
      <g id="Page-1" transform="translate(-0.01739502 0.024169922)">
        <g id="028---Calorie-Counting">
          <path d="M23.6655 15.2451C23.8869 15.7845 24.5002 16.0463 25.0428 15.8329C25.5854 15.6194 25.8561 15.0099 25.6506 14.4643C21.5482 4.02273 11.3573 -1.73087 0.848464 0.463258C0.271731 0.584024 -0.0979024 1.14946 0.0228638 1.72619C0.14363 2.30292 0.709064 2.67256 1.2858 2.55179C9.0266 0.931525 19.3306 4.21259 23.6655 15.2451L23.6655 15.2451Z" transform="translate(26.774292 10.636719)" id="Shape" fill="#000000" fill-rule="evenodd" stroke="none" />
          <path d="M4.26667 49.0667C6.62308 49.0667 8.53333 47.1564 8.53333 44.8C8.53333 13.8667 8.53333 28.7509 8.53333 24.5333L8.53333 2.13333C8.53333 0.955126 7.57821 0 6.4 0C1.67467 0 0 4.46613 0 17.0667L0 44.8C0 47.1564 1.91025 49.0667 4.26667 49.0667L4.26667 49.0667ZM4.2667 46.9334C3.08849 46.9334 2.13336 45.9783 2.13336 44.8001L2.13336 25.6001L6.40003 25.6001L6.40003 44.8001C6.40003 45.9783 5.4449 46.9334 4.2667 46.9334L4.2667 46.9334ZM6.40003 2.1333C6.40003 25.553 6.42029 22.0074 6.35203 23.4666L2.13336 23.4666L2.13336 17.0666C2.13336 2.1333 4.80003 2.1333 6.40003 2.1333L6.40003 2.1333Z" transform="translate(17.084045 9.575684)" id="Shape#1" fill="#000000" fill-rule="evenodd" stroke="none" />
          <path d="M61.2035 53.4531C60.6946 53.1613 60.0456 53.3352 59.7507 53.8424C56.8909 58.7937 51.6072 61.8435 45.8894 61.8435C40.1716 61.8435 34.8879 58.7937 32.0281 53.8424C31.7247 53.3521 31.0866 53.1916 30.5874 53.48C30.0881 53.7684 29.9084 54.4014 30.1817 54.9091C31.7558 57.6176 34.0025 59.8739 36.7043 61.4595C28.137 62.8418 19.3943 60.3998 12.7833 54.7779C12.8451 54.1262 12.8227 57.0872 12.8227 29.3913C14.7651 28.5456 16.0201 26.6276 16.0174 24.5091L16.0174 12.7758C16.0165 11.8208 15.589 10.9161 14.8518 10.3089C14.1146 9.70173 13.1448 9.45556 12.2073 9.63766C18.1793 4.33228 26.0295 1.64343 34.0002 2.17312C41.9709 2.70282 49.3962 6.40681 54.6137 12.4558C60.3695 19.1017 62.8937 27.9517 61.5097 36.6339C58.2346 31.076 52.2541 27.6756 45.8031 27.7035C39.352 27.7314 33.4011 31.1833 30.1742 36.7694C29.901 37.2771 30.0807 37.9101 30.5799 38.1985C31.0792 38.4869 31.7173 38.3264 32.0206 37.8361C35.1223 32.4595 41.0539 29.362 47.2386 29.8891C53.4233 30.4163 58.745 34.4729 60.8921 40.2968C61.0549 40.7292 61.4776 41.0077 61.9391 40.9865C62.4007 40.9654 62.7961 40.6495 62.9188 40.2041C66.6546 26.1571 60.4486 11.3575 47.811 4.17654C35.1735 -3.00442 19.2829 -0.760627 9.12781 9.63872C9.06381 9.62699 8.99874 9.60672 8.93367 9.59926C8.70059 9.56749 8.46445 9.56498 8.23074 9.59179C7.55182 9.66079 6.91326 9.94696 6.40994 10.4078C5.47307 9.56755 4.1301 9.35584 2.98018 9.86712C1.83026 10.3784 1.08781 11.5173 1.08407 12.7758L1.08407 23.6686C-1.10338 31.8597 0.0474318 40.5841 4.28407 47.9278L4.28407 54.3758C4.2853 56.1005 5.32483 57.6549 6.91837 58.3148C8.51191 58.9747 10.346 58.6102 11.5662 57.3913C11.715 57.2354 11.8523 57.0689 11.9769 56.8931C19.8152 63.2328 30.1919 65.4879 39.9545 62.9731C48.1674 65.8119 57.2401 62.4306 61.5918 54.9091C61.886 54.3997 61.7123 53.7484 61.2035 53.4531L61.2035 53.4531ZM3.21741 12.7759C3.21741 12.1868 3.69497 11.7092 4.28407 11.7092C4.87318 11.7092 5.35074 12.1868 5.35074 12.7759L5.35074 21.3092C5.35074 21.8983 5.8283 22.3759 6.41741 22.3759C7.00651 22.3759 7.48408 21.8983 7.48408 21.3092L7.48408 12.7759C7.49229 12.219 7.92018 11.7584 8.47501 11.7092L8.65101 11.7092C9.19801 11.7663 9.6144 12.2259 9.61741 12.7759L9.61741 21.3092C9.61741 21.8983 10.095 22.3759 10.6841 22.3759C11.2732 22.3759 11.7507 21.8983 11.7507 21.3092L11.7507 12.7759C11.7544 12.3645 11.9943 11.9919 12.3672 11.8183C12.7402 11.6447 13.1798 11.701 13.4969 11.9631C13.5226 11.9886 13.5497 12.0129 13.5779 12.0356C13.7758 12.2309 13.8862 12.4979 13.8841 12.7759L13.8841 24.5092C13.8841 26.2765 12.4514 27.7092 10.6841 27.7092L6.41741 27.7092C4.6501 27.7092 3.21741 26.2765 3.21741 24.5092L3.21741 12.7759ZM2.41315 28.0142C2.92548 28.6086 3.56489 29.0804 4.28409 29.3944L4.28409 43.0584C2.37077 38.2896 1.72616 33.1063 2.41315 28.0142L2.41315 28.0142ZM8.55075 56.5092C7.37255 56.5092 6.41742 55.5541 6.41742 54.3759L6.41742 29.8425L10.6841 29.8425L10.6841 54.3759C10.6841 55.5541 9.72896 56.5092 8.55075 56.5092L8.55075 56.5092Z" id="Shape#2" fill="#000000" fill-rule="evenodd" stroke="none" />
          <path d="M7.23307 0.400443C7.0563 0.179427 6.79895 0.0377197 6.51768 0.00651042C6.2364 -0.0246989 5.95424 0.0571533 5.73333 0.234045L2.13333 3.11405L2.13333 1.06711C2.13333 0.478011 1.65577 0.000447591 1.06667 0.000447591C0.477564 0.000447591 0 0.478011 0 1.06711L0 9.60045C0 10.1895 0.477564 10.6671 1.06667 10.6671C1.65577 10.6671 2.13333 10.1895 2.13333 9.60045L2.13333 7.55351L5.73333 10.4335C6.03096 10.6717 6.43304 10.733 6.78812 10.5943C7.14321 10.4557 7.39734 10.1381 7.45479 9.76127C7.51224 9.38443 7.36429 9.00556 7.06667 8.76738L2.77333 5.33378L7.0656 1.90018C7.28678 1.72357 7.42869 1.4663 7.4601 1.18501C7.49151 0.903727 7.40984 0.621488 7.23307 0.400443L7.23307 0.400443Z" transform="translate(29.884094 40.50879)" id="Shape#3" fill="#000000" fill-rule="evenodd" stroke="none" />
          <path d="M3.2 2.13333L4.26667 2.13333C4.85577 2.13333 5.33333 2.6109 5.33333 3.2C5.33333 3.7891 5.8109 4.26667 6.4 4.26667C6.9891 4.26667 7.46667 3.7891 7.46667 3.2C7.46667 1.43269 6.03398 0 4.26667 0L3.2 0C1.43269 0 0 1.43269 0 3.2L0 7.46667C0 9.23398 1.43269 10.6667 3.2 10.6667L4.26667 10.6667C6.03398 10.6667 7.46667 9.23398 7.46667 7.46667C7.46667 6.87756 6.9891 6.4 6.4 6.4C5.8109 6.4 5.33333 6.87756 5.33333 7.46667C5.33333 8.05577 4.85577 8.53333 4.26667 8.53333L3.2 8.53333C2.6109 8.53333 2.13333 8.05577 2.13333 7.46667L2.13333 3.2C2.13333 2.6109 2.6109 2.13333 3.2 2.13333L3.2 2.13333Z" transform="translate(38.41742 40.509033)" id="Shape#4" fill="#000000" fill-rule="evenodd" stroke="none" />
          <path d="M4.26693 4.06901e-06C3.822 -0.000272624 3.42363 0.275651 3.26747 0.692269L0.0674642 9.2256C-0.0659139 9.58268 0.00133464 9.98379 0.24388 10.2778C0.486426 10.5719 0.86742 10.7142 1.24335 10.6512C1.61927 10.5881 1.93302 10.3293 2.0664 9.97227L2.60613 8.53333L5.92773 8.53333L6.46747 9.9744C6.67365 10.5264 7.28828 10.8067 7.84027 10.6005C8.39225 10.3943 8.67259 9.77973 8.4664 9.22774L5.2664 0.694401C5.11093 0.276941 4.7124 5.69662e-05 4.26693 0L4.26693 4.06901e-06ZM3.40613 6.39996L4.26693 4.10449L5.12773 6.39996L3.40613 6.39996Z" transform="translate(46.9505 40.509033)" id="Shape#5" fill="#000000" fill-rule="evenodd" stroke="none" />
          <path d="M6.4 8.53333L2.13333 8.53333L2.13333 1.06667C2.13333 0.477564 1.65577 0 1.06667 0C0.477564 0 0 0.477564 0 1.06667L0 9.6C0 10.1891 0.477564 10.6667 1.06667 10.6667L6.4 10.6667C6.98911 10.6667 7.46667 10.1891 7.46667 9.6C7.46667 9.0109 6.98911 8.53333 6.4 8.53333L6.4 8.53333Z" transform="translate(56.55072 40.509033)" id="Shape#6" fill="#000000" fill-rule="evenodd" stroke="none" />
        </g>
      </g>
    </g>
  </g>
</svg>