<?xml version="1.0" encoding="utf-8"?>
<svg width="64px" height="64px" viewBox="0 0 64 64" version="1.1" xmlns:xlink="http://www.w3.org/1999/xlink" xmlns="http://www.w3.org/2000/svg">
  <defs>
    <filter id="filter_1">
      <feColorMatrix in="SourceGraphic" type="matrix" values="0 0 0 0 1 0 0 0 0 0.9882353 0 0 0 0 1 0 0 0 1 0" />
    </filter>
    <path d="M0 0L64 0L64 64.0001L0 64.0001L0 0Z" id="path_1" />
    <clipPath id="mask_1">
      <use xlink:href="#path_1" />
    </clipPath>
  </defs>
  <g id="muscle" transform="matrix(-1 0 0 1 64 0)" filter="url(#filter_1)">
    <path d="M0 0L64 0L64 64.0001L0 64.0001L0 0Z" id="Background" fill="none" fill-rule="evenodd" stroke="none" />
    <g clip-path="url(#mask_1)">
      <path d="M9.00635 16.7064C9.21436 16.9144 9.48633 17.0179 9.7583 17.0179C10.0303 17.0179 10.3027 16.9139 10.5107 16.7064L17.9219 9.29529C20.0449 7.17175 20.0449 3.71619 17.9219 1.59265C15.7983 -0.531372 12.3423 -0.530396 10.2192 1.59265L9.7583 2.05261L9.29834 1.59265C7.17383 -0.530884 3.71924 -0.530884 1.5957 1.59265C0.566895 2.62146 0 3.98914 0 5.44373C0 6.89832 0.566895 8.26648 1.5957 9.2948L9.00635 16.7064ZM3.1001 3.09698C3.74756 2.44952 4.59717 2.12677 5.44678 2.12677C6.29639 2.12677 7.14697 2.45001 7.79395 3.09698L9.00635 4.30988C9.20605 4.50909 9.47656 4.6214 9.7583 4.6214C10.0405 4.6214 10.311 4.50909 10.5107 4.30988L11.7236 3.09698C13.0186 1.80157 15.1235 1.80304 16.4175 3.09698C17.7114 4.39093 17.7114 6.49689 16.4175 7.79083L9.7583 14.4495L3.1001 7.79083C2.47314 7.16388 2.12744 6.3299 2.12744 5.44415C2.12793 4.55743 2.47314 3.72345 3.1001 3.09698L3.1001 3.09698Z" transform="translate(41.909668 4.2580566)" id="Shape" fill="#000000" fill-rule="evenodd" stroke="none" />
      <path d="M60.5186 61.7066C51.4253 62.7154 44.2139 58.689 44.1416 58.6485C43.897 58.5088 43.6069 58.4712 43.335 58.5459C43.2202 58.5767 31.7822 61.6426 22.5698 59.5977C16.8267 58.3208 11.4097 54.2754 7.4541 51.3218C6.92285 50.9253 6.41943 50.5489 5.94678 50.2036C5.30127 49.7315 4.2749 49.3389 3.37012 48.9922C2.96387 48.8369 2.40723 48.6236 2.2876 48.5489C2.18408 48.4678 2.12744 48.3487 2.12744 48.2124L2.12744 45.7466C2.17871 43.7954 10.3594 13.7725 11.6279 9.95316C11.6592 9.90823 11.7813 9.81986 11.8711 9.77738L28.0605 2.38284L33.2944 9.19681C33.5527 9.54984 33.5283 10.0435 33.2373 10.3692L28.0654 16.167C27.7271 16.5469 27.1572 16.5884 26.8037 16.293L24.7124 14.3648C24.4673 14.1392 24.1187 14.0645 23.792 14.1245C23.4644 14.1831 23.1714 14.4165 23.02 14.7134C22.8452 15.0576 21.2617 15.4795 19.6465 15.4917L19.1201 15.4385C18.6982 15.3882 18.2891 15.6084 18.083 15.98C17.876 16.3516 17.9111 16.8106 18.1709 17.1475C18.6201 17.7281 18.9702 18.1944 19.1685 18.4619L20.2036 36.0581C19.562 38.5572 18.9741 39.2671 18.8281 39.4092C18.397 39.5454 18.084 39.9483 18.084 40.4239C18.084 41.0113 18.5605 41.4878 19.1479 41.4878C20.3545 41.4878 21.3799 39.9024 22.2031 36.8072C30.6646 30.4761 38.0488 36.4512 38.6279 36.9429C41.3154 39.6402 41.4819 41.4317 41.4873 41.5113C41.5 42.0874 41.9712 42.5513 42.5513 42.5513C43.1387 42.5513 43.6152 42.0752 43.6152 41.4878C43.6152 41.2432 43.5264 39.1441 40.7729 36.1114C43.3696 32.919 46.3262 31.0801 49.5825 30.6797C55.1968 29.9883 59.916 33.7637 59.9634 33.8013C60.4194 34.1724 61.0884 34.104 61.4595 33.649C61.8306 33.1944 61.7637 32.5254 61.3096 32.1538C61.0898 31.9746 55.8657 27.772 49.3442 28.5655C45.5322 29.0279 42.1104 31.0894 39.1606 34.6978C36.7666 33.0699 29.9023 29.3853 22.2256 34.2041L21.2734 18.022C21.2637 17.8472 21.21 17.6778 21.1187 17.5288C22.0708 17.416 23.2046 17.1675 24.0269 16.6265L25.3975 17.8897C26.6733 18.9605 28.542 18.8272 29.6523 17.584L34.8242 11.7857C35.7783 10.7168 35.8579 9.10062 34.9971 7.92191L29.2314 0.415558C28.9307 0.0234685 28.3984 -0.109832 27.9458 0.0962224L11 7.83646C10.8228 7.91409 9.92383 8.34915 9.62842 9.23782C9.02588 11.0464 0 43.2354 0 45.7432L0 48.2129C0 49.0054 0.355957 49.7383 0.975586 50.2242C1.28564 50.4668 1.74902 50.6504 2.60986 50.9795C3.31299 51.2491 4.27539 51.6167 4.69092 51.9209C5.15869 52.2627 5.65576 52.6343 6.18115 53.0269C10.291 56.0962 15.9194 60.2993 22.1089 61.6748C30.9199 63.6328 41.2632 61.2657 43.48 60.7071C44.9604 61.4722 50.3921 64 57.5029 64C58.5522 64 59.6387 63.9453 60.7534 63.8208C61.3374 63.7564 61.7578 63.23 61.6934 62.6465C61.6279 62.0616 61.1001 61.6377 60.5186 61.7066L60.5186 61.7066Z" transform="translate(1.125 0)" id="Shape" fill="#000000" fill-rule="evenodd" stroke="none" />
      <path d="M2.12158 0.946289C2.06299 0.414063 1.6123 0 1.06396 0C0.476563 0 0 0.476563 0 1.06396C0 1.77441 0.524902 4.18018 7.27197 5.3042C7.33106 5.31396 7.39014 5.31885 7.44775 5.31885C7.9585 5.31885 8.40918 4.9502 8.49609 4.43018C8.59229 3.85059 8.20068 3.30273 7.62158 3.20557C2.90332 2.41943 2.18457 1.08789 2.12158 0.946289L2.12158 0.946289Z" transform="translate(54.313965 47.870605)" id="Shape" fill="#000000" fill-rule="evenodd" stroke="none" />
      <path d="M22.1171 7.46978C8.18404 10.4542 2.22163 0.920956 1.97505 0.514217C1.67085 0.011776 1.019 -0.149845 0.516554 0.151913C0.0126476 0.454159 -0.150438 1.10748 0.151808 1.61139C0.22212 1.72808 1.91499 4.50689 5.53462 6.87408C8.02876 8.50445 11.832 10.1656 16.976 10.1656C18.6894 10.1656 20.5512 9.9815 22.5625 9.55084C23.1372 9.42779 23.5034 8.86187 23.3803 8.28765C23.2568 7.71344 22.6918 7.34576 22.1171 7.46978L22.1171 7.46978Z" transform="translate(13.8901825 46.80713)" id="Shape" fill="#000000" fill-rule="evenodd" stroke="none" />
    </g>
  </g>
</svg>