<?xml version="1.0" encoding="utf-8"?>
<svg width="32px" height="32px" viewBox="0 0 32 32" version="1.1" xmlns:xlink="http://www.w3.org/1999/xlink" xmlns="http://www.w3.org/2000/svg">
  <defs>
    <filter id="filter_1">
      <feColorMatrix in="SourceGraphic" type="matrix" values="0 0 0 0 0.4392157 0 0 0 0 0.972549 0 0 0 0 0.7294118 0 0 0 1 0" />
    </filter>
    <path d="M0 0L32 0L32 32L0 32L0 0Z" id="path_1" />
    <clipPath id="mask_1">
      <use xlink:href="#path_1" />
    </clipPath>
  </defs>
  <g id="twitter" filter="url(#filter_1)">
    <path d="M0 0L32 0L32 32L0 32L0 0Z" id="Background" fill="none" fill-rule="evenodd" stroke="none" />
    <g clip-path="url(#mask_1)">
      <g id="Group" transform="translate(0 2.963379)">
        <g id="Group">
          <path d="M31.8166 2.93515C31.6537 2.77223 31.3821 2.7179 31.1648 2.77223L30.0785 3.15246C30.7303 2.39206 31.1648 1.57734 31.4364 0.816943C31.545 0.545369 31.4907 0.328122 31.3277 0.16514C31.1648 0.00222093 30.8932 -0.0521064 30.6759 0.0564857C29.1551 0.708289 27.8516 1.25144 26.7653 1.57728C26.7653 1.6316 26.711 1.57728 26.6567 1.57728C25.7876 1.08846 23.6693 0.00215862 22.1485 0.00215862C18.2922 0.056486 15.1963 3.31538 15.1963 7.28033L15.1963 7.49758C9.54754 6.41128 6.45163 4.78184 3.08409 1.25137L2.54106 0.708226L2.21516 1.36003C0.368466 4.89049 1.67201 8.09506 3.79028 10.2676C2.81263 10.1047 2.16083 9.77883 1.56336 9.29001C1.34611 9.12709 1.07453 9.07276 0.80296 9.23568C0.585713 9.34434 0.477058 9.67017 0.531386 9.94175C1.29178 12.4945 3.1928 14.5585 5.25674 15.8077C4.2791 15.8077 3.46437 15.6991 2.64965 15.1559C2.43241 15.0473 2.1065 15.0473 1.88926 15.2103C1.67201 15.3732 1.56336 15.6447 1.67201 15.9163C2.64965 18.6864 4.55067 20.1529 7.59231 20.5331C6.0172 21.4565 3.95326 22.2169 0.748695 22.2712C0.422793 22.2712 0.151219 22.4884 0.042627 22.76C-0.0660277 23.0859 0.042627 23.3575 0.259874 23.5747C2.21522 25.1498 6.56035 26.0732 11.9375 26.0732C21.4969 26.0732 29.3182 17.5458 29.3182 7.06309L29.3182 6.90017C30.5131 6.30269 31.4908 5.16207 31.9796 3.58695C32.0339 3.36964 31.9795 3.09807 31.8166 2.93515L31.8166 2.93515ZM28.5576 6.0309L28.2317 6.13956L28.2317 7.06293C28.2317 16.9482 20.8992 24.9868 11.9373 24.9868C6.99468 24.9868 3.68153 24.172 1.88916 23.303C5.63687 23.0314 7.80946 21.8365 9.49324 20.5329L10.8511 19.5553L9.22166 19.5553C6.12575 19.5553 4.22474 18.6862 3.13844 16.6223C4.11608 16.9482 5.14805 16.9482 6.28867 16.8939C6.72317 16.8395 7.15772 16.8395 7.59222 16.8395L7.75514 15.7532C5.6912 15.1558 3.24703 13.3091 2.05208 10.8106C3.13838 11.2995 4.33327 11.4081 5.41956 11.4081L7.10333 11.4081L5.74553 10.4304C4.6049 9.61569 1.23742 6.73703 2.86687 2.60909C6.343 6.0309 9.65622 7.60602 15.6308 8.69232L16.2826 8.80097L16.2826 7.28018C16.2826 3.9127 18.8897 1.14263 22.1486 1.0883C23.3978 1.03398 25.4618 2.1746 26.0592 2.5005C26.3851 2.66342 26.711 2.71775 27.0368 2.60916C27.8516 2.33758 28.8292 1.95735 29.9155 1.52286C29.4267 2.33758 28.7749 3.09798 27.9059 3.80411C27.6886 3.96703 27.6343 4.29293 27.743 4.5645C27.8516 4.83608 28.1775 4.94473 28.449 4.83608L30.5673 4.13001C30.1871 4.83601 29.5896 5.65074 28.5576 6.0309L28.5576 6.0309Z" id="Shape" fill="#000000" fill-rule="evenodd" stroke="none" />
        </g>
      </g>
    </g>
  </g>
</svg>